<svg width="26" height="26" viewBox="0 0 26 26" fill="none" xmlns="http://www.w3.org/2000/svg">
<path d="M13.1889 7.49613C13.3681 7.18891 13.697 7 14.0526 7H15.5633C16.3351 7 16.816 7.83721 16.4271 8.50387L10.8981 17.9821C10.7189 18.2894 10.39 18.4783 10.0343 18.4783H8.52365C7.75185 18.4783 7.27098 17.6411 7.65987 16.9744L13.1889 7.49613Z" fill="white"/>
<path fill-rule="evenodd" clip-rule="evenodd" d="M16.2389 11.7325C16.0573 11.4212 16.0573 11.0362 16.2389 10.7248L16.9943 9.42994C17.3801 8.76843 18.3359 8.76843 18.7218 9.42994L23.1228 16.9744C23.5116 17.6411 23.0308 18.4783 22.259 18.4783H20.7483C20.3926 18.4783 20.0637 18.2894 19.8845 17.9821L16.2389 11.7325Z" fill="white"/>
<path d="M7.41486 9.19565C8.20797 7.83604 9.66354 7 11.2376 7V7C11.8068 7 12.1615 7.61752 11.8747 8.10925L6.1155 17.9821C5.93629 18.2894 5.60739 18.4783 5.25172 18.4783H3.74104C2.96925 18.4783 2.48838 17.6411 2.87726 16.9744L7.41486 9.19565Z" fill="white"/>
<path fill-rule="evenodd" clip-rule="evenodd" d="M13.8476 15.8319C13.666 15.5206 13.666 15.1355 13.8476 14.8242L14.603 13.5293C14.9888 12.8678 15.9446 12.8678 16.3305 13.5293L18.3401 16.9744C18.729 17.641 18.2482 18.4783 17.4764 18.4783H15.9657C15.61 18.4783 15.2811 18.2893 15.1019 17.9821L13.8476 15.8319Z" fill="white"/>
</svg>
