<svg width="26" height="26" viewBox="0 0 26 26" fill="none" xmlns="http://www.w3.org/2000/svg">
<path fill-rule="evenodd" clip-rule="evenodd" d="M7.05627 5.78663L9.915 5.10768C10.1464 5.05273 10.3684 5.22821 10.3684 5.46603V5.85449C10.3684 5.92475 10.4388 5.97327 10.5044 5.94831C12.1121 5.33741 13.8879 5.33741 15.4956 5.94831C15.5612 5.97327 15.6316 5.92475 15.6316 5.85449V5.46603C15.6316 5.22821 15.8536 5.05273 16.085 5.10768L18.9437 5.78663C19.5146 5.9222 19.9989 6.29792 20.2722 6.8171L20.9731 8.14893C22.3044 10.6783 23 13.4936 23 16.3519V16.755C23 16.9114 22.9358 17.061 22.8223 17.1688C21.5848 18.3445 19.943 19 18.236 19H17.929C17.8108 19 17.7024 18.9345 17.6473 18.8299L16.7562 17.1367C16.7141 17.0568 16.6222 17.0168 16.5351 17.0405C14.2202 17.6688 11.7798 17.6688 9.46492 17.0405C9.37777 17.0168 9.28588 17.0568 9.24382 17.1367L8.35267 18.8299C8.29762 18.9345 8.18916 19 8.07097 19H7.76404C6.05704 19 4.41523 18.3445 3.17765 17.1688C3.06422 17.061 3 16.9114 3 16.755V16.3519C3 13.4936 3.69564 10.6783 5.02688 8.14893L5.72784 6.8171C6.00109 6.29792 6.48545 5.9222 7.05627 5.78663ZM17.7368 12.5C17.7368 13.3284 17.0299 14 16.1579 14C15.2859 14 14.5789 13.3284 14.5789 12.5C14.5789 11.6716 15.2859 11 16.1579 11C17.0299 11 17.7368 11.6716 17.7368 12.5ZM9.84211 14C10.7141 14 11.4211 13.3284 11.4211 12.5C11.4211 11.6716 10.7141 11 9.84211 11C8.97008 11 8.26316 11.6716 8.26316 12.5C8.26316 13.3284 8.97008 14 9.84211 14Z" fill="#5865F1"/>
</svg>
