<svg width="26" height="26" viewBox="0 0 26 26" fill="none" xmlns="http://www.w3.org/2000/svg">
<path d="M14.2668 7H13H12.1359C11.3836 7 10.6361 6.8787 9.92235 6.64078L6.41664 5.47221C5.63425 5.21142 4.78858 5.63425 4.52779 6.41664C4.18119 7.45642 4.0942 8.56519 4.27438 9.6463L4.92588 13.5553C4.97468 13.8481 4.95769 14.1481 4.87614 14.4335L4.48793 15.7922C4.16772 16.913 4.13244 18.096 4.38529 19.2338L4.72216 20.7497C4.86329 21.3848 5.56367 21.7182 6.14556 21.4272L8.35533 20.3223C8.74032 20.1298 9.20529 20.2053 9.50965 20.5097L9.82843 20.8284C10.5786 21.5786 11.596 22 12.6569 22H13.3431C14.404 22 15.4214 21.5786 16.1716 20.8284L16.4903 20.5097C16.7947 20.2053 17.2597 20.1298 17.6447 20.3223L19.885 21.4425C20.4572 21.7286 21.1472 21.4113 21.3023 20.7906L21.5756 19.6978C21.8542 18.5831 21.8542 17.4169 21.5756 16.3023L21.1009 14.4036C21.0343 14.1374 21.0233 13.8603 21.0684 13.5897L21.7291 9.62528C21.907 8.55797 21.8211 7.46336 21.479 6.43686C21.2166 5.64966 20.3564 5.23403 19.5766 5.5176L16.659 6.57855C15.8922 6.85737 15.0826 7 14.2668 7Z" fill="#F5831F" stroke="#F5831F"/>
<path d="M14.2668 7H13H12.1359C11.3836 7 10.6361 6.8787 9.92235 6.64078L6.41664 5.47221C5.63425 5.21142 4.78858 5.63425 4.52779 6.41664C4.18119 7.45642 4.0942 8.56519 4.27438 9.6463L4.92588 13.5553C4.97468 13.8481 4.95769 14.1481 4.87614 14.4335L4.48793 15.7922C4.16772 16.913 4.13244 18.096 4.38529 19.2338L4.72216 20.7497C4.86329 21.3848 5.56367 21.7182 6.14556 21.4272L8.35533 20.3223C8.74032 20.1298 9.20529 20.2053 9.50965 20.5097L9.82843 20.8284C10.5786 21.5786 11.596 22 12.6569 22H13.3431C14.404 22 15.4214 21.5786 16.1716 20.8284L16.4903 20.5097C16.7947 20.2053 17.2597 20.1298 17.6447 20.3223L19.885 21.4425C20.4572 21.7286 21.1472 21.4113 21.3023 20.7906L21.5756 19.6978C21.8542 18.5831 21.8542 17.4169 21.5756 16.3023L21.1009 14.4036C21.0343 14.1374 21.0233 13.8603 21.0684 13.5897L21.7291 9.62528C21.907 8.55797 21.8211 7.46336 21.479 6.43686C21.2166 5.64966 20.3564 5.23403 19.5766 5.5176L16.659 6.57855C15.8922 6.85737 15.0826 7 14.2668 7Z" stroke="#F5831F"/>
<path d="M14 20H15.4776C16.0394 20 16.3208 20.6792 15.9235 21.0765C15.3322 21.6678 14.5302 22 13.694 22H12.306C11.4698 22 10.6678 21.6678 10.0765 21.0765C9.67925 20.6792 9.9606 20 10.5224 20H12H14Z" fill="#D5BFB1" stroke="#D5BFB1"/>
<path d="M16.1591 9.0341L19.8744 5.93796C20.4155 5.4871 21.2406 5.72184 21.4633 6.38995L21.4961 6.48838C21.8263 7.47896 21.8923 8.53856 21.6875 9.56245L21.3109 11.4455C21.1301 12.3494 20.3365 13 19.4147 13H19.0968C17.7868 13 16.5635 12.3453 15.8369 11.2554C15.3609 10.5414 15.4999 9.58344 16.1591 9.0341Z" fill="#763E19" stroke="#763E19"/>
<path d="M9.84092 9.0341L6.12555 5.93796C5.58453 5.4871 4.75939 5.72184 4.53668 6.38995L4.50387 6.48838C4.17368 7.47896 4.10771 8.53856 4.31249 9.56245L4.68911 11.4455C4.86988 12.3494 5.6635 13 6.58526 13H6.90323C8.21318 13 9.43645 12.3453 10.1631 11.2554C10.6391 10.5414 10.5001 9.58344 9.84092 9.0341Z" fill="#763E19" stroke="#763E19"/>
<circle cx="15" cy="16" r="1" fill="#223446"/>
<circle cx="11" cy="16" r="1" fill="#223446"/>
<rect x="11" y="19" width="4" height="2" rx="1" fill="#223446"/>
</svg>
