<svg width="24" height="24" viewBox="0 0 24 24" fill="none" xmlns="http://www.w3.org/2000/svg">
<path d="M12 5V19" stroke="white" stroke-width="2" stroke-linecap="round" stroke-linejoin="round"/>
<path d="M15.3333 7H10.3333C9.71449 7 9.121 7.26339 8.68342 7.73223C8.24583 8.20107 8 8.83696 8 9.5C8 10.163 8.24583 10.7989 8.68342 11.2678C9.121 11.7366 9.71449 12 10.3333 12H13.6667C14.2855 12 14.879 12.2634 15.3166 12.7322C15.7542 13.2011 16 13.837 16 14.5C16 15.163 15.7542 15.7989 15.3166 16.2678C14.879 16.7366 14.2855 17 13.6667 17H8" stroke="white" stroke-width="2" stroke-linecap="round" stroke-linejoin="round"/>
<path d="M15 2.4578C19.0571 3.73207 22 7.52236 22 12C22 16.4776 19.0571 20.2679 15 21.5422M9 2.4578C4.94289 3.73207 2 7.52236 2 12C2 16.4776 4.94289 20.2679 9 21.5422" stroke="white" stroke-width="2" stroke-linecap="round" stroke-linejoin="round"/>
</svg>
